name C:/MyDriveSym/Projects/mobilecap/Data\Session20210825_0002\mocap\ForceDataProcessed\walkingTS3_forces.mot
datacolumns 19
datarows 17
range 0.00000000 0.00800000
endheader 
time	R_ground_force_vx	R_ground_force_vy	R_ground_force_vz	R_ground_force_px	R_ground_force_py	R_ground_force_pz	R_ground_torque_x	R_ground_torque_y	R_ground_torque_z	L_ground_force_vx	L_ground_force_vy	L_ground_force_vz	L_ground_force_px	L_ground_force_py	L_ground_force_pz	L_ground_torque_x	L_ground_torque_y	L_ground_torque_z	
          0.00000000	        -63.86621600	        309.20691700	          8.99255900	          0.12229500	          0.00600000	         -0.13777900	          0.00000000	          0.35952400	          0.00000000	          0.00000000	          0.00000000	          0.00000000	          0.64343300	          0.00000000	         -0.27129500	          0.00000000	          0.00000000	          0.00000000	
          0.00050000	        -64.32473200	        310.70541700	          8.91363800	          0.12229500	          0.00600000	         -0.13777900	          0.00000000	          0.35490600	          0.00000000	          0.00000000	          0.00000000	          0.00000000	          0.64343300	          0.00000000	         -0.27129500	          0.00000000	          0.00000000	          0.00000000	
          0.00100000	        -64.78521000	        312.21255000	          8.83356000	          0.12229500	          0.00600000	         -0.13777900	          0.00000000	          0.35029800	          0.00000000	          0.00000000	          0.00000000	          0.00000000	          0.64343300	          0.00000000	         -0.27129500	          0.00000000	          0.00000000	          0.00000000	
          0.00150000	        -65.24761200	        313.72823300	          8.75231600	          0.12229500	          0.00600000	         -0.13777900	          0.00000000	          0.34570400	          0.00000000	          0.00000000	          0.00000000	          0.00000000	          0.64343300	          0.00000000	         -0.27129500	          0.00000000	          0.00000000	          0.00000000	
          0.00200000	        -65.71190000	        315.25238000	          8.66990000	          0.12254200	          0.00600000	         -0.13775100	          0.00000000	          0.34112200	          0.00000000	          0.00000000	          0.00000000	          0.00000000	          0.64343300	          0.00000000	         -0.27129500	          0.00000000	          0.00000000	          0.00000000	
          0.00250000	        -66.17803700	        316.78490200	          8.58630300	          0.12278900	          0.00600000	         -0.13772200	          0.00000000	          0.33655400	          0.00000000	          0.00000000	          0.00000000	          0.00000000	          0.64343300	          0.00000000	         -0.27129500	          0.00000000	          0.00000000	          0.00000000	
          0.00300000	        -66.64598200	        318.32570900	          8.50151900	          0.12303600	          0.00600000	         -0.13769300	          0.00000000	          0.33200100	          0.00000000	          0.00000000	          0.00000000	          0.00000000	          0.64343300	          0.00000000	         -0.27129500	          0.00000000	          0.00000000	          0.00000000	
          0.00350000	        -67.11569700	        319.87470800	          8.41554100	          0.12328300	          0.00600000	         -0.13766400	          0.00000000	          0.32746300	          0.00000000	          0.00000000	          0.00000000	          0.00000000	          0.64343300	          0.00000000	         -0.27129500	          0.00000000	          0.00000000	          0.00000000	
          0.00400000	        -67.58714000	        321.43180400	          8.32836000	          0.12352900	          0.00600000	         -0.13763500	          0.00000000	          0.32294200	          0.00000000	          0.00000000	          0.00000000	          0.00000000	          0.64343300	          0.00000000	         -0.27129500	          0.00000000	          0.00000000	          0.00000000	
          0.00450000	        -68.06027100	        322.99689800	          8.23997000	          0.12377600	          0.00600000	         -0.13760500	          0.00000000	          0.31843900	          0.00000000	          0.00000000	          0.00000000	          0.00000000	          0.64343300	          0.00000000	         -0.27129500	          0.00000000	          0.00000000	          0.00000000	
          0.00500000	        -68.53504800	        324.56989100	          8.15036500	          0.12402200	          0.00600000	         -0.13757600	          0.00000000	          0.31395300	          0.00000000	          0.00000000	          0.00000000	          0.00000000	          0.64343300	          0.00000000	         -0.27129500	          0.00000000	          0.00000000	          0.00000000	
          0.00550000	        -69.01143000	        326.15068100	          8.05953800	          0.12426900	          0.00600000	         -0.13754600	          0.00000000	          0.30948700	          0.00000000	          0.00000000	          0.00000000	          0.00000000	          0.64343300	          0.00000000	         -0.27129500	          0.00000000	          0.00000000	          0.00000000	
          0.00600000	        -69.48937400	        327.73916400	          7.96748200	          0.12451500	          0.00600000	         -0.13751500	          0.00000000	          0.30504100	          0.00000000	          0.00000000	          0.00000000	          0.00000000	          0.64343300	          0.00000000	         -0.27129500	          0.00000000	          0.00000000	          0.00000000	
          0.00650000	        -69.96883700	        329.33523200	          7.87419100	          0.12476100	          0.00600000	         -0.13748500	          0.00000000	          0.30061500	          0.00000000	          0.00000000	          0.00000000	          0.00000000	          0.64343300	          0.00000000	         -0.27129500	          0.00000000	          0.00000000	          0.00000000	
          0.00700000	        -70.44977600	        330.93877900	          7.77965900	          0.12500700	          0.00600000	         -0.13745400	          0.00000000	          0.29621100	          0.00000000	          0.00000000	          0.00000000	          0.00000000	          0.64343300	          0.00000000	         -0.27129500	          0.00000000	          0.00000000	          0.00000000	
          0.00750000	        -70.93214600	        332.54969200	          7.68388200	          0.12525300	          0.00600000	         -0.13742400	          0.00000000	          0.29183000	          0.00000000	          0.00000000	          0.00000000	          0.00000000	          0.64343300	          0.00000000	         -0.27129500	          0.00000000	          0.00000000	          0.00000000	
          0.00800000	        -71.41590500	        334.16786000	          7.58685200	          0.12549800	          0.00600000	         -0.13739300	          0.00000000	          0.28747100	          0.00000000	          0.00000000	          0.00000000	          0.00000000	          0.64343300	          0.00000000	         -0.27129500	          0.00000000	          0.00000000	          0.00000000	
